<svg width="299" height="300" viewBox="0 0 299 300" fill="none" xmlns="http://www.w3.org/2000/svg">
<path d="M133.933 1.9333C133 2.86663 132.333 6.86664 132.333 10.8666C132.333 15 131.8 19 131.267 19.8C130.733 20.7333 126.733 22.0666 122.333 23C117.933 24.0666 112.733 25.5333 110.733 26.6C103.667 30.0666 100.867 29 96.0668 21C93.6668 17 90.8668 13.6666 89.8001 13.6666C86.7334 13.6666 61.6668 28.7333 61.6668 30.6C61.6668 33.1333 66.2001 43 67.2668 43C67.9334 43 68.3334 44.2 68.3334 45.8C68.3334 49.1333 49.4001 68.3333 46.0668 68.3333C44.7334 68.3333 41.2668 66.8666 38.3334 65C35.4001 63.2666 32.0668 61.6666 31.0001 61.6666C29.1334 61.6666 25.5334 66.8666 17.9334 80.3333C16.0668 83.6666 14.0668 86.4666 13.4001 86.7333C10.3334 88.0666 13.0001 92.0666 19.1334 95.6666C22.8668 97.9333 26.4668 100.6 27.0001 101.8C28.0668 103.667 23.2668 124.067 20.4668 129.667C19.6668 131 16.8668 131.8 11.5334 132.067C6.06676 132.333 3.13343 133.133 2.06676 134.6C0.200096 136.867 -0.466571 162.2 1.13343 166.2C1.8001 167.8 3.8001 168.333 8.86676 168.333C18.7334 168.333 21.6668 169.4 21.6668 172.867C21.6668 175.533 22.4668 178.467 27.1334 193.133C27.8001 195.4 28.0668 198.2 27.6668 199.133C26.8668 201.133 15.8001 208.333 13.5334 208.333C12.8668 208.333 12.3334 209.533 12.3334 211C12.3334 212.467 12.8668 213.667 13.5334 213.667C14.2001 213.667 15.1334 215.133 15.5334 217C16.0668 218.867 17.0001 220.333 17.6668 220.333C18.4668 220.333 19.0001 221 19.0001 221.667C19.0001 222.467 21.4001 226.867 24.4668 231.667C30.3334 241 30.3334 241 39.4001 235.4C42.2001 233.667 45.4001 232.333 46.3334 232.6C47.4001 232.867 52.7334 237.4 58.2001 242.867C67.2668 251.533 70.3334 256.6 67.4001 257.933C65.9334 258.467 61.6668 267.933 61.6668 270.333C61.6668 271.933 68.0668 276.2 84.7334 285.533C87.5334 287 90.2001 288.333 90.8668 288.333C91.5334 288.333 93.1334 286.2 94.4668 283.533C95.9334 280.867 97.5334 277.667 98.3334 276.2C99.5334 273.8 101.8 273 105 273.667C119 276.6 129.4 279.8 130.733 281.4C131.533 282.6 132.333 286.6 132.333 290.467C132.333 294.467 133 297.933 133.933 298.467C136.6 300.067 162.733 300.6 165.667 299C167.933 297.8 168.333 296.2 168.333 289V280.467L174.067 279C177.133 278.2 183.533 276.467 188.333 275.133C193.133 273.8 197.667 273 198.6 273.267C199.4 273.533 202.067 277.133 204.467 281.133C207 285.133 209.533 288.2 210.333 288.067C211 287.8 217.8 284.2 225.4 279.8C234.067 274.867 239 271.267 239 269.8C239 268.6 237.533 265.4 235.667 262.733C233.8 260.067 232.333 256.6 232.333 255C232.333 251.933 251 232.333 253.933 232.333C254.867 232.333 258.067 233.8 261 235.667C268.733 240.467 271.133 239.933 275.4 233C277.4 229.667 279 226.333 279 225.667C279 225.133 279.4 224.333 280.067 224.067C280.6 223.8 282.6 220.6 284.6 216.867L288.333 209.933L285 207.8C283.267 206.6 281.4 205.667 281 205.667C280.6 205.667 279.533 205 278.6 204.333C277.667 203.533 275.8 202.067 274.333 201.133C271.8 199.267 271.8 199.133 274.867 188.067C276.467 182.067 278.2 175.4 278.6 173.267C279.4 169.267 281.133 168.6 291.667 168.067L298.333 167.667L298.733 151.8C299 141.4 298.6 135.4 297.533 134.2C296.6 133 293.267 132.333 288.067 132.333C283 132.333 280.067 131.8 279.8 130.6C279.533 129.8 278.333 125.4 277 121C275.8 116.6 274.333 111.933 273.533 110.733C272.867 109.4 272.333 106.6 272.333 104.467C272.333 101.133 273.4 99.9333 279.8 96.3333C288.2 91.6666 288.467 90.0666 282.333 80.2C280.467 77.4 279 74.7333 279 74.3333C279 73.8 277.533 71.5333 275.667 69.1333C273.8 66.7333 272.333 64.0666 272.333 63.2666C272.333 60.7333 268.067 61.4 261.8 65C258.733 66.8666 255.133 68.3333 253.8 68.3333C251.133 68.3333 232.333 49.4 232.333 46.7333C232.333 44.3333 236.067 36.6 237.8 35.6666C239.8 34.3333 239.133 29 236.733 27.5333C235.4 26.7333 230.733 24.0666 226.333 21.6666C221.933 19.2666 216.733 16.4666 214.867 15.2666C210.2 12.6 207.667 13.8 204.467 20.0666C201.133 26.7333 198.467 28.8666 194.733 27.9333C193 27.4 186.6 25.6666 180.333 24.0666L169 21L168.333 12.3333C167.933 7.5333 167.133 2.86663 166.6 1.9333C165.133 -0.333365 136.2 -0.333365 133.933 1.9333ZM178.2 60.8666C194.467 66.3333 205.533 73.1333 217 84.8666C224.733 92.7333 230.867 101.267 234.333 109C242.467 127.8 243.533 132.467 243.4 151.667C243.267 167.667 243 169.933 239.133 180.333C234.733 192.2 228.6 203.267 223.4 208.867C221.667 210.733 220.333 212.6 220.333 213.133C220.333 215.267 202.6 229.133 193.667 234.067C179.933 241.533 170.467 243.667 150.333 243.667C130.067 243.667 122.467 241.933 107 234.2C89.0001 225.267 74.0668 209.667 65.2668 190.733C63.2668 186.6 61.6668 182.6 61.6668 181.933C61.6668 181.267 60.7334 178.867 59.6668 176.6C57.0001 171.4 55.5334 143.8 57.4001 133.667C59.0001 124.6 63.6668 111.933 67.9334 105.4C69.5334 102.6 71.0001 100.067 71.0001 99.5333C71.0001 98.2 79.4001 87.9333 85.0001 82.4666C96.3334 71.5333 116.067 61.2666 131.667 58.2C145.133 55.5333 165.8 56.7333 178.2 60.8666Z" fill="white"/>
</svg>
