<?xml version="1.0" standalone="no"?>
<!DOCTYPE svg PUBLIC "-//W3C//DTD SVG 20010904//EN"
 "http://www.w3.org/TR/2001/REC-SVG-20010904/DTD/svg10.dtd">
<svg version="1.0" xmlns="http://www.w3.org/2000/svg"
 width="250.000000pt" height="243.000000pt" viewBox="0 0 250.000000 243.000000"
 preserveAspectRatio="xMidYMid meet">
<metadata>
Created by potrace 1.16, written by Peter Selinger 2001-2019
</metadata>
<g transform="translate(0.000000,243.000000) scale(0.100000,-0.100000)"
fill="#FFFFFF" stroke="none">
<path d="M1132 2318 c-7 -7 -12 -37 -12 -67 0 -31 -4 -61 -8 -67 -4 -7 -34
-17 -67 -24 -33 -8 -72 -19 -87 -27 -53 -26 -74 -18 -110 42 -18 30 -39 55
-47 55 -23 0 -211 -113 -211 -127 0 -19 34 -93 42 -93 5 0 8 -9 8 -21 0 -25
-142 -169 -167 -169 -10 0 -36 11 -58 25 -22 13 -47 25 -55 25 -14 0 -41 -39
-98 -140 -14 -25 -29 -46 -34 -48 -23 -10 -3 -40 43 -67 28 -17 55 -37 59 -46
8 -14 -28 -167 -49 -209 -6 -10 -27 -16 -67 -18 -41 -2 -63 -8 -71 -19 -14
-17 -19 -207 -7 -237 5 -12 20 -16 58 -16 74 0 96 -8 96 -34 0 -20 6 -42 41
-152 5 -17 7 -38 4 -45 -6 -15 -89 -69 -106 -69 -5 0 -9 -9 -9 -20 0 -11 4
-20 9 -20 5 0 12 -11 15 -25 4 -14 11 -25 16 -25 6 0 10 -5 10 -10 0 -6 18
-39 41 -75 44 -70 44 -70 112 -28 21 13 45 23 52 21 8 -2 48 -36 89 -77 68
-65 91 -103 69 -113 -11 -4 -43 -75 -43 -93 0 -12 48 -44 173 -114 21 -11 41
-21 46 -21 5 0 17 16 27 36 11 20 23 44 29 55 9 18 26 24 50 19 105 -22 183
-46 193 -58 6 -9 12 -39 12 -68 0 -30 5 -56 12 -60 20 -12 216 -16 238 -4 17
9 20 21 20 75 l0 64 43 11 c23 6 71 19 107 29 36 10 70 16 77 14 6 -2 26 -29
44 -59 19 -30 38 -53 44 -52 5 2 56 29 113 62 65 37 102 64 102 75 0 9 -11 33
-25 53 -14 20 -25 46 -25 58 0 23 140 170 162 170 7 0 31 -11 53 -25 58 -36
76 -32 108 20 15 25 27 50 27 55 0 4 3 10 8 12 4 2 19 26 34 54 l28 52 -25 16
c-13 9 -27 16 -30 16 -3 0 -11 5 -18 10 -7 6 -21 17 -32 24 -19 14 -19 15 4
98 12 45 25 95 28 111 6 30 19 35 98 39 l50 3 3 119 c2 78 -1 123 -9 132 -7 9
-32 14 -71 14 -38 0 -60 4 -62 13 -2 6 -11 39 -21 72 -9 33 -20 68 -26 77 -5
10 -9 31 -9 47 0 25 8 34 56 61 63 35 65 47 19 121 -14 21 -25 41 -25 44 0 4
-11 21 -25 39 -14 18 -25 38 -25 44 0 19 -32 14 -79 -13 -23 -14 -50 -25 -60
-25 -20 0 -161 142 -161 162 0 18 28 76 41 83 15 10 10 50 -8 61 -10 6 -45 26
-78 44 -33 18 -72 39 -86 48 -35 20 -54 11 -78 -36 -25 -50 -45 -66 -73 -59
-13 4 -61 17 -108 29 l-85 23 -5 65 c-3 36 -9 71 -13 78 -11 17 -228 17 -245
0z m332 -442 c122 -41 205 -92 291 -180 58 -59 104 -123 130 -181 61 -141 69
-176 68 -320 -1 -120 -3 -137 -32 -215 -33 -89 -79 -172 -118 -214 -13 -14
-23 -28 -23 -32 0 -16 -133 -120 -200 -157 -103 -56 -174 -72 -325 -72 -152 0
-209 13 -325 71 -135 67 -247 184 -313 326 -15 31 -27 61 -27 66 0 5 -7 23
-15 40 -20 39 -31 246 -17 322 12 68 47 163 79 212 12 21 23 40 23 44 0 10 63
87 105 128 85 82 233 159 350 182 101 20 256 11 349 -20z"/>
<path d="M1003 1803 c-7 -2 -13 -13 -13 -24 0 -14 7 -19 28 -19 51 0 111 -54
112 -101 0 -27 -15 -37 -80 -54 -34 -10 -134 -60 -161 -82 -90 -72 -139 -145
-163 -245 -31 -123 9 -245 113 -348 54 -54 170 -121 231 -134 14 -3 33 -11 43
-18 16 -12 17 -17 6 -42 -14 -29 -74 -66 -109 -66 -15 0 -20 -5 -18 -17 3 -17
25 -18 266 -21 251 -2 262 -2 262 17 0 14 -10 20 -39 25 -41 6 -101 53 -101
79 0 17 42 47 66 47 35 0 165 75 214 123 170 167 173 387 7 552 -56 55 -189
135 -225 135 -6 0 -23 5 -37 12 -19 8 -25 19 -25 42 1 51 51 96 107 96 26 0
33 4 33 19 0 10 -7 22 -16 25 -19 7 -483 7 -501 -1z m127 -298 c3 -16 4 -165
2 -332 -2 -222 -6 -303 -14 -303 -46 0 -146 126 -167 212 -14 61 -14 199 1
252 16 56 66 134 112 174 43 38 59 37 66 -3z m296 13 c96 -74 149 -198 141
-328 -7 -101 -16 -138 -43 -182 -13 -21 -24 -41 -24 -45 0 -12 -90 -93 -104
-93 -8 0 -16 10 -20 23 -8 29 -8 595 0 625 8 28 14 28 50 0z"/>
</g>
</svg>
