<svg width="144" height="158" viewBox="0 0 144 158" fill="none" xmlns="http://www.w3.org/2000/svg">
<path d="M38.2967 0.81744C37.3634 1.08411 36.5634 2.55077 36.5634 4.01744C36.5634 5.88411 37.4967 6.55077 40.2967 6.55077C47.0967 6.55077 55.0967 13.7508 55.2301 20.0174C55.2301 23.6174 53.2301 24.9508 44.5634 27.2174C40.0301 28.5508 26.6967 35.2174 23.0967 38.1508C11.0967 47.7508 4.56339 57.4841 1.36339 70.8174C-2.76994 87.2174 2.56339 103.484 16.4301 117.217C23.6301 124.417 39.0967 133.351 47.2301 135.084C49.0967 135.484 51.6301 136.551 52.9634 137.484C55.0967 139.084 55.2301 139.751 53.7634 143.084C51.8967 146.951 43.8967 151.884 39.2301 151.884C37.2301 151.884 36.5634 152.551 36.8301 154.151C37.2301 156.417 40.1634 156.551 72.2967 156.951C105.763 157.217 107.23 157.217 107.23 154.684C107.23 152.817 105.897 152.017 102.03 151.351C96.5634 150.551 88.5634 144.284 88.5634 140.817C88.5634 138.551 94.1634 134.551 97.3634 134.551C102.03 134.551 119.363 124.551 125.897 118.151C148.563 95.8841 148.963 66.5508 126.83 44.5508C119.363 37.2174 101.63 26.5508 96.8301 26.5508C96.0301 26.5508 93.7634 25.8841 91.8967 24.9508C89.3634 23.8841 88.5634 22.4174 88.5634 19.3508C88.6967 12.5508 95.3634 6.55077 102.83 6.55077C106.297 6.55077 107.23 6.01744 107.23 4.01744C107.23 2.68411 106.297 1.08411 105.097 0.684106C102.563 -0.249227 40.6967 -0.249227 38.2967 0.81744ZM55.2301 40.5508C55.6301 42.6841 55.7634 62.5508 55.4967 84.8174C55.2301 114.417 54.6967 125.217 53.6301 125.217C47.4967 125.217 34.1634 108.417 31.3634 96.9508C29.4967 88.8174 29.4967 70.4174 31.4967 63.3508C33.6301 55.8841 40.2967 45.4841 46.4301 40.1508C52.1634 35.0841 54.2967 35.2174 55.2301 40.5508ZM94.6967 38.8174C107.497 48.6841 114.563 65.2174 113.497 82.5508C112.563 96.0174 111.363 100.951 107.763 106.817C106.03 109.617 104.563 112.284 104.563 112.817C104.563 114.417 92.5634 125.217 90.6967 125.217C89.6301 125.217 88.5634 123.884 88.0301 122.151C86.9634 118.284 86.9634 42.8174 88.0301 38.8174C89.0967 35.0841 89.8967 35.0841 94.6967 38.8174Z" fill="white"/>
</svg>
